<svg xmlns="http://www.w3.org/2000/svg" xmlns:xlink="http://www.w3.org/1999/xlink" viewBox="0 0 1000 1000" width="1000" height="1000" fill="none">
  <path d="M75.3 365.32 L266.68 365.32 L308.03 406.67 L308.03 579.15 L252.51 634.67 L75.3 634.67 L75.3 504.72 L161.54 504.72 L191.07 548.43 L239.51 548.43 L196.98 483.46 L75.3 483.46 Z" fill="#F8F8F6"/>
  <path d="M323.38 365.32 L422.62 365.32 L422.62 515.37 L501.78 440.93 L582.11 517.72 L583.29 365.32 L682.53 365.32 L807.75 489.37 L818.38 502.36 L749.87 574.42 L680.15 496.45 L680.15 634.67 L565.57 634.67 L499.41 572.07 L429.71 634.67 L323.38 634.67 Z" fill="#F8F8F6"/>
  <path d="M834.91 365.32 L924.7 365.32 L924.7 634.67 L834.91 634.67 L834.91 492.91 L771.12 429.11 Z" fill="#F8F8F6"/>
</svg>
